<svg width="800" height="580" viewBox="0 0 800 580" fill="none" xmlns="http://www.w3.org/2000/svg">
<path d="M800 534.3V552.278C800 567.174 787.93 579.244 773.034 579.244H26.9663C12.0701 579.244 -7.62939e-06 567.174 -7.62939e-06 552.278V534.3C-7.62939e-06 519.404 12.0701 507.334 26.9663 507.334H773.034C787.93 507.334 800 519.408 800 534.3ZM775.73 448.576C775.73 463.472 763.66 475.543 748.764 475.543H51.2359C36.3398 475.543 24.2697 463.472 24.2697 448.576C24.2697 260.704 162.876 104.598 343.198 77.1353C341.573 71.7277 340.674 66.0108 340.674 60.0818C340.674 27.3699 367.288 0.755981 400 0.755981C432.712 0.755981 459.326 27.3699 459.326 60.0818C459.326 66.0108 458.427 71.7277 456.802 77.1353C637.124 104.594 775.73 260.704 775.73 448.576ZM372.372 154.403C368.741 139.956 354.1 131.215 339.646 134.818C335.36 135.897 233.862 162.09 168.457 239.537C113 305.205 105.97 387.233 105.701 390.692C104.532 405.538 115.621 418.521 130.47 419.686C131.189 419.744 131.901 419.769 132.613 419.769C146.549 419.769 158.357 409.047 159.468 394.917C159.522 394.241 165.285 326.883 209.668 274.331C263.461 210.633 351.389 187.489 352.823 187.115C367.249 183.476 375.996 168.839 372.372 154.403Z" fill="black"/>
</svg>
