<svg width="20" height="19" viewBox="0 0 20 19" fill="none" xmlns="http://www.w3.org/2000/svg">
<path d="M20 7.5C20 7.10218 19.842 6.72064 19.5607 6.43934C19.2794 6.15804 18.8978 6 18.5 6H13.4L10.447 0.755C10.4035 0.677619 10.3402 0.613213 10.2636 0.568398C10.1869 0.523583 10.0998 0.499975 10.011 0.5C9.92213 0.500075 9.83489 0.523834 9.75826 0.56883C9.68163 0.613826 9.61837 0.678433 9.575 0.756L6.645 6H1.5C1.1435 6.00527 0.800534 6.13736 0.532593 6.37258C0.264652 6.6078 0.0892583 6.93078 0.0378585 7.28359C-0.0135412 7.63641 0.062414 7.996 0.252106 8.29789C0.441799 8.59978 0.732823 8.82423 1.073 8.931L2.636 17.106C2.77119 17.6471 3.0834 18.1274 3.523 18.4706C3.96259 18.8138 4.50431 19.0001 5.062 19H14.938C15.5004 19 16.0463 18.8104 16.4876 18.4618C16.9289 18.1132 17.2398 17.6261 17.37 17.079L18.927 8.931C19.2358 8.83931 19.5069 8.65064 19.7001 8.39292C19.8934 8.1352 19.9985 7.82212 20 7.5ZM10.013 2.023L12.247 6H7.791L10.013 2.023ZM17.132 13H13.553L13.953 9H17.9L17.132 13ZM12.547 13H7.441L7.032 9H12.947L12.547 13ZM12.447 14L12.047 18H7.947L7.538 14H12.447ZM6.026 9L6.435 13H2.869L2.105 9H6.026ZM3.612 16.891L3.06 14H6.537L6.946 18H5.062C4.73163 18.0018 4.41002 17.8938 4.14761 17.6931C3.88519 17.4924 3.6968 17.2103 3.612 16.891ZM16.394 16.864C16.3128 17.1886 16.1254 17.4768 15.8615 17.6826C15.5977 17.8885 15.2726 18.0002 14.938 18H13.053L13.453 14H16.941L16.394 16.864ZM18.5 8H1.5C1.36739 8 1.24022 7.94732 1.14645 7.85355C1.05268 7.75979 1 7.63261 1 7.5C1 7.36739 1.05268 7.24021 1.14645 7.14645C1.24022 7.05268 1.36739 7 1.5 7H6.086L6.042 7.081C5.98155 7.19645 5.96857 7.33093 6.00581 7.45581C6.04304 7.58069 6.12757 7.6861 6.24137 7.74958C6.35517 7.81307 6.48927 7.82962 6.61509 7.7957C6.74091 7.76178 6.84852 7.68008 6.915 7.568L7.232 7H12.809L13.064 7.453C13.1321 7.55493 13.2354 7.62827 13.354 7.65908C13.4727 7.68988 13.5986 7.67601 13.7077 7.62009C13.8168 7.56418 13.9016 7.47011 13.9459 7.35579C13.9902 7.24146 13.9909 7.11484 13.948 7H18.5C18.6326 7 18.7598 7.05268 18.8536 7.14645C18.9473 7.24021 19 7.36739 19 7.5C19 7.63261 18.9473 7.75979 18.8536 7.85355C18.7598 7.94732 18.6326 8 18.5 8Z" fill="black"/>
</svg>
