<svg width="534" height="687" viewBox="0 0 534 687" fill="none" xmlns="http://www.w3.org/2000/svg">
<path d="M400.333 153.003V95.8134C400.333 70.1957 400.333 57.387 394.957 49.107C390.253 41.8624 382.92 36.7267 374.507 34.7817C364.887 32.559 352.85 36.9364 328.773 45.691L86.3274 133.853C67.3547 140.752 57.8684 144.202 50.8717 150.282C44.691 155.652 39.924 162.458 36.9894 170.101C33.6667 178.755 33.6667 188.849 33.6667 209.037V353.003M167 519.67H367M167 403.003H367M167 286.337H367M140.333 653.003H393.667C431.003 653.003 449.673 653.003 463.933 645.737C476.477 639.343 486.677 629.147 493.067 616.603C500.333 602.34 500.333 583.673 500.333 546.337V259.669C500.333 222.332 500.333 203.664 493.067 189.403C486.677 176.859 476.477 166.66 463.933 160.269C449.673 153.003 431.003 153.003 393.667 153.003H140.333C102.997 153.003 84.328 153.003 70.0674 160.269C57.523 166.66 47.3244 176.859 40.933 189.403C33.6667 203.664 33.6667 222.332 33.6667 259.669V546.337C33.6667 583.673 33.6667 602.34 40.933 616.603C47.3244 629.147 57.523 639.343 70.0674 645.737C84.328 653.003 102.996 653.003 140.333 653.003Z" stroke="black" stroke-width="66.6667" stroke-linecap="round" stroke-linejoin="round"/>
</svg>
